# xmcd CD database file
#
# Track frame offsets:
#	150
#	21952
#	40566
#	61368
#	86418
#	106530
#	125629
#	146964
#
# Disc length: 2241 seconds
#
# Revision: 0
# Processed by: cddbd v1.5.2PL0 Copyright (c) Steve Scherf et al.
# Submitted via: CD2WAV32(JP) R3.22
#
DISCID=6408bf08
DTITLE=Celine Dion - ALL THE WAY A Decade of Song
DYEAR=5555
DGENRE=Acapella
TTITLE0=THE POWER OF LOVE
TTITLE1=BEAUTY AND THE BEAST
TTITLE2=BECAUSE YOU LOVED ME
TTITLE3=IT'S ALL COMING BACK TO ME NOW
TTITLE4=ALL BY MYSELE
TTITLE5=(IMMOR TALITY)
TTITLE6=TO LOVE YOU MORE
TTITLE7=MYHEART WILL GO ON
EXTD=
EXTT0=
EXTT1=
EXTT2=
EXTT3=
EXTT4=
EXTT5=
EXTT6=
EXTT7=
PLAYORDER=
